# AST/ASF file generated using VICON BodyLanguage
# -----------------------------------------------
:version 1.10
:name VICON
:units
  mass 1.0
  length 0.45
  angle deg
:documentation
   .ast/.asf automatically generated from VICON data using
   VICON BodyBuilder and BodyLanguage model FoxedUp or BRILLIANT.MOD
:root
   order TX TY TZ RX RY RZ
   axis XYZ
   position 0 0 0  
   orientation 0 0 0 
:bonedata
  begin
     id 1 
     name lhipjoint
     direction 0.660183 -0.676772 0.325788 
     length 2.75133 
     axis 0 0 0  XYZ
  end
  begin
     id 2 
     name lfemur
     direction 0.34202 -0.939693 0  
     length 7.70317  
     axis 0 0 20  XYZ
    dof rx ry rz
    limits (-160.0 20.0)
           (-70.0 70.0)
           (-60.0 70.0)
  end
  begin
     id 3 
     name ltibia
     direction 0.342105 -0.939662 0   
     length 7.18701   
     axis 0 0 20   XYZ
    dof rx
    limits (-10.0 170.0)
  end
  begin
     id 4 
     name lfoot
     direction 0.14163 -0.389126 0.910232   
     length 2.41719   
     axis -90 7.62852e-016 20   XYZ
    dof rx rz
    limits (-45.0 90.0)
           (-70.0 20.0)
  end
  begin
     id 5 
     name ltoes
     direction 1.53533e-011 -4.21926e-011 1   
     length 1.18611   
     axis -90 7.62852e-016 20   XYZ
    dof rx
    limits (-90.0 20.0)
  end
  begin
     id 6 
     name rhipjoint
     direction -0.6658 -0.67229 0.323631   
     length 2.76968  
     axis 0 0 0  XYZ 
  end
  begin
     id 7 
     name rfemur
     direction -0.34202 -0.939693 0   
     length 7.92547   
     axis 0 0 -20   XYZ
    dof rx ry rz
    limits (-160.0 20.0)
           (-70.0 70.0)
           (-70.0 60.0)
  end
  begin
     id 8 
     name rtibia
     direction -0.342022 -0.939692 0   
     length 7.22641   
     axis 0 0 -20   XYZ
    dof rx
    limits (-10.0 170.0)
 end
 begin
     id 9 
     name rfoot
     direction -0.105675 -0.29034 0.951071   
     length 2.48149  
     axis -90 -7.62852e-016 -20   XYZ
    dof rx rz
    limits (-45.0 90.0)
           (-20.0 70.0)
  end
  begin
     id 10 
     name rtoes
     direction -1.5349e-011 -4.21859e-011 1   
     length 1.23343   
     axis -90 -7.62852e-016 -20   XYZ
    dof rx
    limits (-90.0 20.0)
  end
  begin
     id 11 
     name lowerback
     direction 0.0104173 0.993624 -0.112266   
     length 2.00527   
     axis 0 0 0   XYZ
    dof rx ry rz
    limits (-20.0 45.0)
           (-30.0 30.0)
           (-30.0 30.0)
  end
  begin
     id 12 
     name upperback
     direction 0.00733149 0.999856 -0.0152913   
     length 2.01385   
     axis 0 0 0   XYZ
    dof rx ry rz
    limits (-20.0 45.0)
           (-30.0 30.0)
           (-30.0 30.0)
  end
  begin
     id 13 
     name thorax
     direction 0.0026304 0.999318 0.036841   
     length 2.03734   
     axis 0 0 0   XYZ
    dof rx ry rz
    limits (-20.0 45.0)
           (-30.0 30.0)
           (-30.0 30.0)
  end
  begin
     id 14 
     name lowerneck
     direction 0.0293154 0.998757 0.0403082   
     length 1.65303   
     axis 0 0 0   XYZ
    dof rx ry rz
    limits (-20.0 45.0)
           (-30.0 30.0)
           (-30.0 30.0)
  end
  begin
     id 15 
     name upperneck
     direction -0.0376619 0.998184 -0.0470083   
     length 1.60926   
     axis 0 0 0   XYZ
    dof rx ry rz
    limits (-20.0 45.0)
           (-30.0 30.0)
           (-30.0 30.0)
  end
  begin
     id 16
     name head
     direction -0.0170133 0.999635 -0.0209778  
     length 1.73625  
     axis 0 0 0   XYZ
    dof rx ry rz
    limits (-20.0 45.0)
           (-30.0 30.0)
           (-30.0 30.0)
  end
  begin
     id 17 
     name lclavicle
     direction 0.919857 0.39181 -0.0186333  
     length 3.75313  
     axis 0 0 0   XYZ
    dof ry rz
    limits (-20.0 10.0)
           (0.0 20.0)
  end
  begin
     id 18 
     name lhumerus
     direction 1 -4.48988e-011 1.44029e-027   
     length 5.49313   
     axis 180 -30 -90   XYZ
    dof rx ry rz
    limits (-60.0 90.0)
           (-90.0 90.0)
           (-90.0 90.0)
  end
  begin
     id 19
     name lradius
     direction 1 -4.48924e-011 7.46281e-027   
     length 3.29037   
     axis 180 -30 -90   XYZ
    dof rx
    limits (-10.0 170.0)
  end
  begin
     id 20
     name lwrist
     direction 1 -4.48955e-011 2.19879e-026   
     length 1.64519   
     axis -1.34358e-014 90 90   XYZ
    dof ry
    limits (-180.0 0.0)
 end
  begin
     id 21 
     name lhand
     direction 1 -4.48978e-011 4.39747e-026   
     length 0.729656   
     axis -2.80598e-014 90 90   XYZ
    dof rx rz
    limits (-90.0 90.0)
           (-45.0 45.0)
  end
  begin
     id 22 
     name lfingers
     direction 1 -4.49071e-011 8.79411e-026   
     length 0.588268   
     axis -5.61193e-014 90 90   XYZ
    dof rx
    limits (0.0 90.0)
  end
  begin
     id 23
     name lthumb
     direction 0.707107 -6.34817e-011 0.707107   
     length 0.844638   
     axis -90 45 -9.86923e-015   XYZ
    dof rx rz
    limits (-45.0 45.0)
           (-45.0 45.0)
  end
  begin
     id 24 
     name rclavicle
     direction -0.919898 0.388279 0.0550233   
     length 3.7171  
     axis 0 0 0   XYZ 
    dof ry rz
    limits (-10.0 20.0)
           (-20.0 0.0)
  end
  begin
     id 25 
     name rhumerus
     direction -1 -4.48968e-011 9.98372e-028  
     length 5.23684   
     axis 180 30 90   XYZ
    dof rx ry rz
    limits (-90.0 60.0)
           (-90.0 90.0)
           (-90.0 90.0)
  end
  begin
     id 26 
     name rradius
     direction -1 -4.48956e-011 1.01023e-026   
     length 3.38251   
     axis 180 30 90   XYZ
    dof rx
    limits (-10.0 170.0)
  end
  begin
     id 27 
     name rwrist
     direction -1 -4.4892e-011 2.19886e-026   
     length 1.69126   
     axis -1.34358e-014 -90 -90   XYZ
    dof ry
    limits (-180.0 0.0)
  end
  begin
     id 28
     name rhand
     direction -1 -4.49024e-011 4.39727e-026   
     length 0.691454   
     axis -2.80598e-014 -90 -90   XYZ
    dof rx rz
    limits (-90.0 90.0)
           (-45.0 45.0)
  end
  begin
     id 29
     name rfingers
     direction -1 -4.49097e-011 8.79388e-026   
     length 0.557468   
     axis -5.61193e-014 -90 -90   XYZ
    dof rx
    limits (0.0 90.0)
  end
  begin
     id 30
     name rthumb
     direction -0.707107 -6.34938e-011 0.707107   
     length 0.800416   
     axis -90 -45 9.86923e-015   XYZ
    dof rx rz
    limits (-45.0 45.0)
           (-45.0 45.0)
  end
:hierarchy
  begin
    root lhipjoint rhipjoint lowerback
    lhipjoint lfemur
    lfemur ltibia
    ltibia lfoot
    lfoot ltoes
    rhipjoint rfemur
    rfemur rtibia
    rtibia rfoot
    rfoot rtoes
    lowerback upperback
    upperback thorax
    thorax lowerneck lclavicle rclavicle
    lowerneck upperneck
    upperneck head
    lclavicle lhumerus
    lhumerus lradius
    lradius lwrist
    lwrist lhand lthumb
    lhand lfingers
    rclavicle rhumerus
    rhumerus rradius
    rradius rwrist
    rwrist rhand rthumb
    rhand rfingers
  end

#!OML:ASF H:\BabyWalks\Project 1\Capture day 1\Session 1\baby.ASF
:FULLY-SPECIFIED
:DEGREES
231
root -33.3331 17.3593 -2.40703 55.3604 72.3324 61.0992
lowerback 7.77383 -4.24772 9.78958
upperback 3.2532 -4.34421 7.8187
thorax -1.07912 -1.9488 3.09161
lowerneck -2.08031 4.10879 2.85644
upperneck -0.568317 6.6972 -27.7253
head 1.32632 3.6055 -8.9411
rclavicle 4.21423e-014 -1.01778e-013
rhumerus -107.861 72.4687 -136.228
rradius 92.0326
rwrist 9.40383
rhand -25.0896 11.7106
rfingers 7.12502
rthumb 1.42501 -18.2644
lclavicle 4.21423e-014 -1.01778e-013
lhumerus -67.336 -49.6962 117.641
lradius 73.2438
lwrist -3.66999
lhand -15.1244 -17.302
lfingers 7.12502
lthumb 11.0447 12.3874
rfemur -7.42251 9.70246 -7.95233
rtibia 33.9987
rfoot -20.1854 -13.5172
rtoes -15.6438
lfemur 8.39942 4.01874 -33.879
ltibia 7.29148
lfoot -10.8073 9.21998
ltoes -2.47493
232
root -33.3463 17.3498 -2.40542 55.1557 72.1375 60.9191
lowerback 7.90345 -4.23206 9.54099
upperback 3.40014 -4.33943 7.80109
thorax -0.979833 -1.94382 3.21009
lowerneck -2.03864 4.16785 2.85721
upperneck -0.685788 6.75867 -27.8084
head 1.29928 3.65159 -8.96926
rclavicle -4.77083e-015 1.59028e-014
rhumerus -107.629 72.5752 -136.022
rradius 91.9434
rwrist 9.46339
rhand -25.4982 11.9017
rfingers 7.12502
rthumb 1.03036 -18.0756
lclavicle -4.77083e-015 1.59028e-014
lhumerus -67.0414 -49.6738 117.421
lradius 73.2715
lwrist -3.55693
lhand -15.4685 -17.2339
lfingers 7.12502
lthumb 10.7128 12.473
rfemur -7.7533 9.49832 -8.1566
rtibia 34.3796
rfoot -20.2308 -13.2389
rtoes -15.8484
lfemur 8.17975 4.28736 -33.9363
ltibia 7.67733
lfoot -11.1296 9.04804
ltoes -2.02281
233
root -33.3594 17.3409 -2.40247 55.0028 71.9615 60.7979
lowerback 8.04866 -4.22064 9.28537
upperback 3.54014 -4.33675 7.7947
thorax -0.895215 -1.9406 3.34625
lowerneck -1.99768 4.23175 2.86052
upperneck -0.802257 6.82748 -27.8933
head 1.2741 3.70136 -8.99819
rclavicle -2.3059e-014 6.67916e-014
rhumerus -107.369 72.6758 -135.77
rradius 91.8516
rwrist 9.52297
rhand -25.834 12.1227
rfingers 7.12502
rthumb 0.706119 -17.8559
lclavicle -2.3059e-014 6.67916e-014
lhumerus -66.7711 -49.6396 117.233
lradius 73.2973
lwrist -3.43089
lhand -15.7674 -17.1596
lfingers 7.12502
lthumb 10.4245 12.5619
rfemur -8.0479 9.28281 -8.34646
rtibia 34.7288
rfoot -20.2744 -12.9633
rtoes -16.0786
lfemur 7.98446 4.53358 -33.9879
ltibia 8.02983
lfoot -11.4125 8.87475
ltoes -1.65851
234
root -33.3724 17.3326 -2.39818 54.9086 71.8028 60.7427
lowerback 8.18294 -4.20875 9.02384
upperback 3.68734 -4.33592 7.79461
thorax -0.79606 -1.93813 3.49173
lowerneck -1.9624 4.29609 2.8674
upperneck -0.930314 6.89449 -27.9779
head 1.24662 3.75102 -9.02777
rclavicle 2.3059e-014 -5.725e-014
rhumerus -107.007 72.7771 -135.404
rradius 91.7617
rwrist 9.58344
rhand -26.0823 12.3657
rfingers 7.12502
rthumb 0.466304 -17.6136
lclavicle 2.3059e-014 -5.725e-014
lhumerus -66.4974 -49.6118 117.049
lradius 73.3256
lwrist -3.29961
lhand -16.0436 -17.0823
lfingers 7.12502
lthumb 10.1581 12.6525
rfemur -8.30255 9.05814 -8.52552
rtibia 35.0422
rfoot -20.3169 -12.6915
rtoes -16.3318
lfemur 7.82117 4.75644 -34.038
ltibia 8.3357
lfoot -11.6608 8.70312
ltoes -1.31142
235
root -33.3851 17.325 -2.39244 54.8738 71.6642 60.7534
lowerback 8.32967 -4.19851 8.75962
upperback 3.82473 -4.3343 7.80027
thorax -0.713475 -1.93617 3.64637
lowerneck -1.93398 4.36347 2.8697
upperneck -1.05527 6.96639 -28.0511
head 1.22147 3.80228 -9.05209
rclavicle -5.08889e-014 -5.40694e-014
rhumerus -106.609 72.8604 -134.989
rradius 91.6776
rwrist 9.63283
rhand -26.2885 12.6177
rfingers 7.12502
rthumb 0.267058 -17.3619
lclavicle -5.08889e-014 -5.40694e-014
lhumerus -66.2456 -49.5705 116.884
lradius 73.359
lwrist -3.18411
lhand -16.2625 -17.0118
lfingers 7.12502
lthumb 9.94686 12.7331
rfemur -8.5137 8.82949 -8.69025
rtibia 35.3173
rfoot -20.357 -12.4274
rtoes -16.6043
lfemur 7.69484 4.95399 -34.0858
ltibia 8.57993
lfoot -11.8632 8.53999
ltoes -1.00819
236
root -33.3974 17.3183 -2.38521 54.8907 71.5475 60.8191
lowerback 8.4793 -4.18894 8.50503
upperback 3.95268 -4.33166 7.805
thorax -0.643152 -1.93434 3.79565
lowerneck -1.91383 4.43104 2.87365
upperneck -1.17624 7.03914 -28.1137
head 1.19877 3.85283 -9.07274
rclavicle 3.18055e-014 -7.31528e-014
rhumerus -106.176 72.9164 -134.527
rradius 91.6043
rwrist 9.67096
rhand -26.4546 12.8766
rfingers 7.12502
rthumb 0.106638 -17.1031
lclavicle 3.18055e-014 -7.31528e-014
lhumerus -66.0184 -49.5177 116.731
lradius 73.3997
lwrist -3.09131
lhand -16.3853 -16.9498
lfingers 7.12502
lthumb 9.82843 12.8008
rfemur -8.68106 8.60607 -8.83573
rtibia 35.5513
rfoot -20.3934 -12.1797
rtoes -16.8857
lfemur 7.60744 5.12691 -34.1277
ltibia 8.75902
lfoot -12.0125 8.38421
ltoes -0.755953
237
root -33.4089 17.3125 -2.37636 54.9629 71.4495 60.9429
lowerback 8.63122 -4.17972 8.26137
upperback 4.06749 -4.32776 7.80348
thorax -0.589155 -1.93267 3.93319
lowerneck -1.90026 4.49659 2.86749
upperneck -1.2884 7.10987 -28.1508
head 1.17788 3.90068 -9.08248
rclavicle -2.14687e-014 -1.59028e-014
rhumerus -105.735 72.942 -134.049
rradius 91.5457
rwrist 9.70475
rhand -26.5793 13.1369
rfingers 7.12502
rthumb -0.0137356 -16.8428
lclavicle -2.14687e-014 -1.59028e-014
lhumerus -65.8216 -49.4521 116.587
lradius 73.4497
lwrist -3.01671
lhand -16.3682 -16.888
lfingers 7.12502
lthumb 9.84497 12.8618
rfemur -8.80329 8.39621 -8.96497
rtibia 35.7421
rfoot -20.4283 -11.9525
rtoes -17.1634
lfemur 7.55757 5.27562 -34.1662
ltibia 8.87606
lfoot -12.1179 8.23149
ltoes -0.578988
238
root -33.4196 17.3078 -2.3657 55.085 71.3754 61.1154
lowerback 8.7731 -4.171 8.03896
upperback 4.17087 -4.32414 7.79166
thorax -0.543925 -1.93153 4.04817
lowerneck -1.89528 4.56112 2.84965
upperneck -1.39178 7.17923 -28.1518
head 1.15867 3.94569 -9.07714
rclavicle -2.38542e-015 6.36111e-014
rhumerus -105.28 72.9378 -133.562
rradius 91.5004
rwrist 9.74704
rhand -26.7411 13.3438
rfingers 7.12502
rthumb -0.170018 -16.6358
lclavicle -2.38542e-015 6.36111e-014
lhumerus -65.6542 -49.3816 116.447
lradius 73.5081
lwrist -2.95763
lhand -16.3829 -16.8318
lfingers 7.12502
lthumb 9.83074 12.9187
rfemur -8.88119 8.2104 -9.0688
rtibia 35.8894
rfoot -20.4639 -11.753
rtoes -17.4062
lfemur 7.54026 5.39831 -34.1943
ltibia 8.93396
lfoot -12.1773 8.09159
ltoes -0.426814
239
root -33.4294 17.3045 -2.35309 55.2442 71.3315 61.3168
lowerback 8.9011 -4.16181 7.8473
upperback 4.25772 -4.31885 7.76929
thorax -0.511469 -1.92988 4.13475
lowerneck -1.89869 4.62221 2.82211
upperneck -1.47729 7.24581 -28.1165
head 1.14341 3.98626 -9.05708
rclavicle -3.81667e-014 -1.59028e-014
rhumerus -104.813 72.8999 -133.072
rradius 91.464
rwrist 9.80619
rhand -26.8719 13.5328
rfingers 7.12502
rthumb -0.296367 -16.4467
lclavicle -3.81667e-014 -1.59028e-014
lhumerus -65.526 -49.3088 116.318
lradius 73.5736
lwrist -2.91054
lhand -16.3604 -16.7802
lfingers 7.12502
lthumb 9.85248 12.9692
rfemur -8.9216 8.05684 -9.1348
rtibia 35.9948
rfoot -20.4985 -11.593
rtoes -17.6002
lfemur 7.5503 5.49467 -34.2023
ltibia 8.93167
lfoot -12.1989 7.96083
ltoes -0.30411
240
root -33.4383 17.3028 -2.33826 55.434 71.3195 61.5374
lowerback 9.01901 -4.15185 7.68596
upperback 4.32315 -4.31059 7.73621
thorax -0.49903 -1.92721 4.19323
lowerneck -1.90477 4.68118 2.78629
upperneck -1.54526 7.3111 -28.0455
head 1.13124 4.02354 -9.02288
rclavicle -5.56597e-015 -3.81667e-014
rhumerus -104.362 72.826 -132.605
rradius 91.4337
rwrist 9.88292
rhand -27.0011 13.6813
rfingers 7.12502
rthumb -0.421132 -16.298
lclavicle -5.56597e-015 -3.81667e-014
lhumerus -65.4433 -49.2354 116.207
lradius 73.6407
lwrist -2.87914
lhand -16.373 -16.7459
lfingers 7.12502
lthumb 9.8403 13.0041
rfemur -8.92984 7.94003 -9.15647
rtibia 36.0605
rfoot -20.532 -11.4869
rtoes -17.7572
lfemur 7.58185 5.56541 -34.1857
ltibia 8.87453
lfoot -12.1844 7.83901
ltoes -0.210611
241
root -33.4465 17.3029 -2.32112 55.6616 71.3424 61.7827
lowerback 9.11361 -4.14087 7.55038
upperback 4.37376 -4.30173 7.69372
thorax -0.491958 -1.92438 4.22643
lowerneck -1.91527 4.73599 2.74351
upperneck -1.60013 7.37142 -27.9419
head 1.12079 4.05603 -8.97613
rclavicle 2.22639e-014 -8.26944e-014
rhumerus -103.915 72.7318 -132.157
rradius 91.4001
rwrist 9.97671
rhand -27.1054 13.803
rfingers 7.12502
rthumb -0.521905 -16.1761
lclavicle 2.22639e-014 -8.26944e-014
lhumerus -65.393 -49.1771 116.108
lradius 73.7094
lwrist -2.85191
lhand -16.382 -16.721
lfingers 7.12502
lthumb 9.83161 13.0295
rfemur -8.90813 7.86181 -9.12957
rtibia 36.089
rfoot -20.5592 -11.4407
rtoes -17.8592
lfemur 7.63005 5.60698 -34.1418
ltibia 8.77005
lfoot -12.1333 7.72442
ltoes -0.145099
242
root -33.4541 17.3048 -2.30153 55.9188 71.4037 62.0418
lowerback 9.19077 -4.12793 7.43635
upperback 4.40462 -4.28988 7.64635
thorax -0.498065 -1.9204 4.2418
lowerneck -1.93279 4.78719 2.7035
upperneck -1.63607 7.42985 -27.8196
head 1.11575 4.08475 -8.92311
rclavicle -6.52014e-014 1.55847e-013
rhumerus -103.497 72.6143 -131.748
rradius 91.3595
rwrist 10.0691
rhand -27.2179 13.8674
rfingers 7.12502
rthumb -0.630543 -16.1114
lclavicle -6.52014e-014 1.55847e-013
lhumerus -65.3777 -49.1327 116.029
lradius 73.7799
lwrist -2.83712
lhand -16.3858 -16.7059
lfingers 7.12502
lthumb 9.82799 13.0448
rfemur -8.86087 7.82413 -9.04677
rtibia 36.0824
rfoot -20.5814 -11.4593
rtoes -17.896
lfemur 7.68998 5.61979 -34.0645
ltibia 8.62442
lfoot -12.0541 7.61412
ltoes -0.123555
243
root -33.4613 17.309 -2.27942 56.1986 71.5096 62.3074
lowerback 9.24964 -4.11263 7.34147
upperback 4.41872 -4.27472 7.59841
thorax -0.513216 -1.91499 4.24501
lowerneck -1.94882 4.83308 2.66072
upperneck -1.66254 7.4813 -27.676
head 1.11068 4.10872 -8.86267
rclavicle -2.38542e-014 -5.40694e-014
rhumerus -103.13 72.4789 -131.399
rradius 91.3019
rwrist 10.1192
rhand -27.3136 13.91
rfingers 7.12502
rthumb -0.723013 -16.0685
lclavicle -2.38542e-014 -5.40694e-014
lhumerus -65.3889 -49.1101 115.967
lradius 73.8531
lwrist -2.84362
lhand -16.4532 -16.7064
lfingers 7.12502
lthumb 9.76294 13.0473
rfemur -8.78907 7.82562 -8.89858
rtibia 36.0413
rfoot -20.5945 -11.5482
rtoes -17.8809
lfemur 7.75633 5.60263 -33.9468
ltibia 8.44821
lfoot -11.9487 7.50865
ltoes -0.164206
244
root -33.4683 17.3151 -2.25474 56.4997 71.66 62.5835
lowerback 9.29343 -4.09545 7.25692
upperback 4.42029 -4.25739 7.55165
thorax -0.533955 -1.90868 4.24296
lowerneck -1.96731 4.87452 2.61624
upperneck -1.6821 7.52704 -27.5168
head 1.10614 4.12865 -8.79683
rclavicle -7.39479e-014 1.27222e-014
rhumerus -102.796 72.3379 -131.092
rradius 91.2252
rwrist 10.1421
rhand -27.3538 13.9436
rfingers 7.12502
rthumb -0.761801 -16.0348
lclavicle -7.39479e-014 1.27222e-014
lhumerus -65.4218 -49.111 115.92
lradius 73.9373
lwrist -2.86829
lhand -16.3956 -16.7075
lfingers 7.12502
lthumb 9.81848 13.0436
rfemur -8.68944 7.86376 -8.68454
rtibia 35.9653
rfoot -20.5931 -11.7082
rtoes -17.8335
lfemur 7.82718 5.55604 -33.7875
ltibia 8.2578
lfoot -11.827 7.40606
ltoes -0.258162
